# xmcd
#
# Track frame offsets:
#	182
#	16540
#	30580
#	45392
#	65437
#	78580
#	99302
#	126107
#	145467
#	163355
#	178420
#	239730
#	261162
#	283137
#	298597
#
# Disc length: 4262 seconds
#
# Revision: 0
# Processed by: cddbd v1.4PL0 Copyright (c) Steve Scherf et al.
# Submitted via: audiograbber 1.80.04
#
DISCID=de10a40f
DTITLE=The Temptations - A Song For You - Masterpiece
DYEAR=1986
DGENRE=Soul
TTITLE0=Happy People
TTITLE1=Glasshouse
TTITLE2=Shakey Ground
TTITLE3=The Prophet
TTITLE4=Happpy People (Instrumental)
TTITLE5=A Song for you
TTITLE6=Memories
TTITLE7=i'm Bachelor
TTITLE8=Firefly
TTITLE9=Hey Girl (i like your Style)
TTITLE10=Masterpiece
TTITLE11=Ma
TTITLE12=Law of the Land
TTITLE13=Plastic Man
TTITLE14=Hurry Tomorrow
EXTD=kommt von Mowtown Record
EXTT0=
EXTT1=
EXTT2=
EXTT3=
EXTT4=
EXTT5=
EXTT6=
EXTT7=
EXTT8=
EXTT9=
EXTT10=
EXTT11=
EXTT12=
EXTT13=
EXTT14=
PLAYORDER=
